# xmcd
#
# Track frame offsets: 
#        150
#        19010
#        39745
#        59488
#        91077
#        111257
#        121518
#        138268
#        163410
#        173560
#        187080
#        213325
#        241302
#        263432
#        289743
#        314760
#
# Disc length: 4569 seconds
#
# Revision: 2
# Processed by: cddbd v1.5.2PL0 Copyright (c) Steve Scherf et al.
# Submitted via: ExactAudioCopy v0.95b4
#
DISCID=e111d710
DTITLE=Enigma - Voyageur
DYEAR=2003
DGENRE=New Age
TTITLE0=From East to West
TTITLE1=Voyageur
TTITLE2=Incognito
TTITLE3=Page of Cups
TTITLE4=Boum-Boum
TTITLE5=Total Eclipse of the Moon
TTITLE6=Look of Today
TTITLE7=In the Shadow, In the Light
TTITLE8=Weightless
TTITLE9=The Piano
TTITLE10=Following the Sun
TTITLE11=Mea Culpa (Fade to Spirit Mix)
TTITLE12=Sadeness (Mutilation UK Mix)
TTITLE13=T.N.T. for the Brain (Night Girl Remix)
TTITLE14=The Eyes of Truth (Deep Bass Club Mix)
TTITLE15=Gravity of Love (Scourge Club Mix)
EXTD=YEAR: 2003
EXTT0=
EXTT1=
EXTT2=
EXTT3=
EXTT4=
EXTT5=
EXTT6=
EXTT7=
EXTT8=
EXTT9=
EXTT10=
EXTT11=
EXTT12=
EXTT13=
EXTT14=
EXTT15=
PLAYORDER=
